<svg width="80" height="78" viewBox="0 0 80 78" fill="none" xmlns="http://www.w3.org/2000/svg">
<path d="M77.001 42.7754L59.3228 11.4295C57.3631 7.95413 54.546 5.06849 51.1543 3.0623C47.7626 1.05612 43.9158 0 40 0C36.0842 0 32.2374 1.05612 28.8457 3.0623C25.454 5.06849 22.6369 7.95413 20.6772 11.4295L2.99896 42.7754C1.0366 46.2544 0.00228157 50.2017 3.77034e-06 54.2205C-0.00227403 58.2393 1.02757 62.1878 2.98598 65.6691C4.9444 69.1505 7.76236 72.0419 11.1565 74.0527C14.5507 76.0636 18.4015 77.1229 22.3217 77.1242H57.6783C61.5985 77.1229 65.4493 76.0636 68.8435 74.0527C72.2376 72.0419 75.0556 69.1505 77.014 65.6691C78.9724 62.1878 80.0023 58.2393 80 54.2205C79.9977 50.2017 78.9634 46.2544 77.001 42.7754ZM35.7346 57.5264C35.7346 58.0574 35.5289 58.5666 35.1626 58.942C34.7964 59.3174 34.2997 59.5284 33.7818 59.5284H26.9982C26.4871 59.5284 25.997 59.3202 25.6356 58.9497C25.2741 58.5792 25.0711 58.0767 25.0711 57.5528C25.0711 57.0288 25.2741 56.5263 25.6356 56.1558C25.997 55.7853 26.4871 55.5772 26.9982 55.5772H33.7818C34.2917 55.5743 34.7823 55.7771 35.1476 56.1418C35.513 56.5065 35.7238 57.0038 35.7346 57.5264ZM40 66.4824H26.9982C26.7444 66.4818 26.4932 66.4292 26.2594 66.3277C26.0256 66.2262 25.8139 66.0779 25.6368 65.8914C25.4597 65.7049 25.3207 65.4841 25.228 65.2418C25.1352 64.9995 25.0906 64.7407 25.0968 64.4805C25.0919 64.2231 25.1378 63.9674 25.2316 63.7286C25.3254 63.4899 25.4653 63.273 25.6428 63.091C25.8204 62.909 26.0319 62.7656 26.2649 62.6694C26.4978 62.5732 26.7472 62.5262 26.9982 62.5312H40C40.2538 62.5249 40.5063 62.5706 40.7426 62.6657C40.979 62.7608 41.1944 62.9033 41.3763 63.0848C41.5582 63.2664 41.7029 63.4834 41.8019 63.723C41.9009 63.9627 41.9522 64.2202 41.9528 64.4805C41.9528 65.0114 41.7471 65.5206 41.3809 65.8961C41.0146 66.2715 40.5179 66.4824 40 66.4824ZM73.6607 63.6903C72.1992 66.2791 70.1622 68.4777 67.7154 70.1072C65.2686 71.7367 62.4811 72.751 59.5797 73.0677V47.5695C59.5804 47.3133 59.5317 47.0595 59.4364 46.8227C59.341 46.5859 59.201 46.3708 59.0243 46.1896C58.8476 46.0085 58.6377 45.8649 58.4067 45.7672C58.1757 45.6695 57.9282 45.6196 57.6783 45.6202H22.3217C22.0718 45.6196 21.8243 45.6695 21.5933 45.7672C21.3623 45.8649 21.1524 46.0085 20.9757 46.1896C20.799 46.3708 20.659 46.5859 20.5636 46.8227C20.4683 47.0595 20.4196 47.3133 20.4203 47.5695V73.0677C17.3591 72.7385 14.4266 71.6305 11.8892 69.8443C9.35188 68.0581 7.29008 65.6503 5.89113 62.8396C4.49218 60.0289 3.80043 56.9045 3.8787 53.7501C3.95697 50.5958 4.80279 47.5114 6.33933 44.7773L24.0176 13.3787C25.6466 10.5145 27.9796 8.13814 30.7839 6.48652C33.5882 4.8349 36.7658 3.96576 40 3.96576C43.2342 3.96576 46.4118 4.8349 49.2161 6.48652C52.0204 8.13814 54.3534 10.5145 55.9824 13.3787L73.6607 44.7773C75.2749 47.6542 76.1245 50.9149 76.1245 54.2338C76.1245 57.5526 75.2749 60.8134 73.6607 63.6903ZM46.8966 21.7552C46.5821 21.3113 46.4424 20.7622 46.5052 20.2173C46.5681 19.6725 46.8289 19.172 47.2358 18.8155C47.4179 18.6497 47.6319 18.5248 47.864 18.449C48.0961 18.3732 48.3411 18.3482 48.5833 18.3755C48.8254 18.4028 49.0593 18.4818 49.2698 18.6075C49.4803 18.7332 49.6627 18.9028 49.8053 19.1053L50.0674 19.4793C50.2131 19.6917 50.3167 19.9315 50.3721 20.1849C50.4275 20.4383 50.4336 20.7004 50.3902 20.9563C50.3468 21.2121 50.2546 21.4567 50.119 21.676C49.9833 21.8954 49.8069 22.0852 49.5997 22.2346C49.3925 22.384 49.1587 22.4902 48.9115 22.547C48.6643 22.6037 48.4086 22.61 48.159 22.5655C47.9094 22.521 47.6708 22.4265 47.4569 22.2875C47.2429 22.1485 47.0578 21.9676 46.912 21.7552H46.8966ZM50.1856 26.897C50.3298 27.1104 50.4315 27.3508 50.485 27.6045C50.5385 27.8583 50.5427 28.1203 50.4974 28.3757C50.4521 28.6311 50.3581 28.8748 50.2208 29.093C50.0835 29.3111 49.9056 29.4994 49.6974 29.647C49.3758 29.8749 48.9937 29.9963 48.6027 29.9947C48.2905 29.9946 47.9829 29.9168 47.7064 29.7682C47.4298 29.6196 47.1925 29.4044 47.0148 29.1412C46.7056 28.6934 46.5715 28.1429 46.6391 27.5986C46.7067 27.0543 46.9709 26.5558 47.3797 26.2016C47.5641 26.0386 47.7797 25.9169 48.0126 25.8441C48.2455 25.7713 48.4906 25.7491 48.7324 25.7788C48.9742 25.8085 49.2072 25.8896 49.4167 26.0168C49.6262 26.144 49.8076 26.3146 49.9492 26.5177L50.1856 26.897ZM55.5404 23.5938C55.6858 23.8063 55.7888 24.0462 55.8435 24.2996C55.8981 24.5531 55.9034 24.8151 55.859 25.0706C55.8146 25.3262 55.7214 25.5702 55.5847 25.7887C55.448 26.0072 55.2705 26.1958 55.0625 26.3438C54.7407 26.5759 54.3562 26.6993 53.9628 26.6968C53.6517 26.6968 53.3453 26.6197 53.0697 26.472C52.7941 26.3243 52.5574 26.1104 52.3799 25.8486C52.0684 25.4024 51.9319 24.8524 51.9976 24.3078C52.0633 23.7633 52.3263 23.2639 52.7345 22.9089C52.9173 22.7431 53.1321 22.6187 53.3649 22.5436C53.5978 22.4686 53.8434 22.4448 54.0858 22.4736C54.3283 22.5024 54.5621 22.5833 54.772 22.711C54.9819 22.8386 55.1632 23.0102 55.304 23.2145L55.5404 23.5938Z" fill="black"/>
<path fill-rule="evenodd" clip-rule="evenodd" d="M73.6607 63.6903C72.1992 66.2791 70.1622 68.4777 67.7154 70.1072C65.2686 71.7367 62.4811 72.751 59.5797 73.0677V47.5695C59.5804 47.3133 59.5317 47.0595 59.4364 46.8227C59.341 46.5859 59.201 46.3708 59.0243 46.1896C58.8476 46.0085 58.6377 45.8649 58.4067 45.7672C58.1757 45.6695 57.9282 45.6196 57.6783 45.6202H22.3217C22.0718 45.6196 21.8243 45.6695 21.5933 45.7672C21.3623 45.8649 21.1524 46.0085 20.9757 46.1896C20.799 46.3708 20.659 46.5859 20.5636 46.8227C20.4683 47.0595 20.4196 47.3133 20.4203 47.5695V73.0677C17.3591 72.7385 14.4266 71.6305 11.8892 69.8443C9.35188 68.0581 7.29008 65.6503 5.89113 62.8396C4.49218 60.0289 3.80043 56.9045 3.8787 53.7501C3.95697 50.5958 4.80279 47.5114 6.33933 44.7773L24.0176 13.3787C25.6466 10.5145 27.9796 8.13814 30.7839 6.48652C33.5882 4.8349 36.7658 3.96576 40 3.96576C43.2342 3.96576 46.4118 4.8349 49.2161 6.48652C52.0204 8.13814 54.3534 10.5145 55.9824 13.3787L73.6607 44.7773C75.2749 47.6542 76.1245 50.9149 76.1245 54.2338C76.1245 57.5526 75.2749 60.8134 73.6607 63.6903ZM46.5052 20.2173C46.4424 20.7622 46.5821 21.3113 46.8966 21.7552H46.912C47.0578 21.9676 47.2429 22.1485 47.4569 22.2875C47.6708 22.4265 47.9094 22.521 48.159 22.5655C48.4086 22.61 48.6643 22.6037 48.9115 22.547C49.1587 22.4902 49.3925 22.384 49.5997 22.2346C49.8069 22.0852 49.9833 21.8954 50.119 21.676C50.2546 21.4567 50.3468 21.2121 50.3902 20.9563C50.4336 20.7004 50.4275 20.4383 50.3721 20.1849C50.3167 19.9315 50.2131 19.6917 50.0674 19.4793L49.8053 19.1053C49.6627 18.9028 49.4803 18.7332 49.2698 18.6075C49.0593 18.4818 48.8254 18.4028 48.5833 18.3755C48.3411 18.3482 48.0961 18.3732 47.864 18.449C47.6319 18.5248 47.4179 18.6497 47.2358 18.8155C46.8289 19.172 46.5681 19.6725 46.5052 20.2173ZM50.485 27.6045C50.4315 27.3508 50.3298 27.1104 50.1856 26.897L49.9492 26.5177C49.8076 26.3146 49.6262 26.144 49.4167 26.0168C49.2072 25.8896 48.9742 25.8085 48.7324 25.7788C48.4906 25.7491 48.2455 25.7713 48.0126 25.8441C47.7797 25.9169 47.5641 26.0386 47.3797 26.2016C46.9709 26.5558 46.7067 27.0543 46.6391 27.5986C46.5715 28.1429 46.7056 28.6934 47.0148 29.1412C47.1925 29.4044 47.4298 29.6196 47.7064 29.7682C47.9829 29.9168 48.2905 29.9946 48.6027 29.9947C48.9937 29.9963 49.3758 29.8749 49.6974 29.647C49.9056 29.4994 50.0835 29.3111 50.2208 29.093C50.3581 28.8748 50.4521 28.6311 50.4974 28.3757C50.5427 28.1203 50.5385 27.8583 50.485 27.6045ZM55.8435 24.2996C55.7888 24.0462 55.6858 23.8063 55.5404 23.5938L55.304 23.2145C55.1632 23.0102 54.9819 22.8386 54.772 22.711C54.5621 22.5833 54.3283 22.5024 54.0858 22.4736C53.8434 22.4448 53.5978 22.4686 53.3649 22.5436C53.1321 22.6187 52.9173 22.7431 52.7345 22.9089C52.3263 23.2639 52.0633 23.7633 51.9976 24.3078C51.9319 24.8524 52.0684 25.4024 52.3799 25.8486C52.5574 26.1104 52.7941 26.3243 53.0697 26.472C53.3453 26.6197 53.6517 26.6968 53.9628 26.6968C54.3562 26.6993 54.7407 26.5759 55.0625 26.3438C55.2705 26.1958 55.448 26.0072 55.5847 25.7887C55.7214 25.5702 55.8146 25.3262 55.859 25.0706C55.9034 24.8151 55.8981 24.5531 55.8435 24.2996Z" fill="black"/>
<path fill-rule="evenodd" clip-rule="evenodd" d="M73.6607 63.6903C72.1992 66.2791 70.1622 68.4777 67.7154 70.1072C65.2686 71.7367 62.4811 72.751 59.5797 73.0677V47.5695C59.5804 47.3133 59.5317 47.0595 59.4364 46.8227C59.341 46.5859 59.201 46.3708 59.0243 46.1896C58.8476 46.0085 58.6377 45.8649 58.4067 45.7672C58.1757 45.6695 57.9282 45.6196 57.6783 45.6202H22.3217C22.0718 45.6196 21.8243 45.6695 21.5933 45.7672C21.3623 45.8649 21.1524 46.0085 20.9757 46.1896C20.799 46.3708 20.659 46.5859 20.5636 46.8227C20.4683 47.0595 20.4196 47.3133 20.4203 47.5695V73.0677C17.3591 72.7385 14.4266 71.6305 11.8892 69.8443C9.35188 68.0581 7.29008 65.6503 5.89113 62.8396C4.49218 60.0289 3.80043 56.9045 3.8787 53.7501C3.95697 50.5958 4.80279 47.5114 6.33933 44.7773L24.0176 13.3787C25.6466 10.5145 27.9796 8.13814 30.7839 6.48652C33.5882 4.8349 36.7658 3.96576 40 3.96576C43.2342 3.96576 46.4118 4.8349 49.2161 6.48652C52.0204 8.13814 54.3534 10.5145 55.9824 13.3787L73.6607 44.7773C75.2749 47.6542 76.1245 50.9149 76.1245 54.2338C76.1245 57.5526 75.2749 60.8134 73.6607 63.6903ZM46.5052 20.2173C46.4424 20.7622 46.5821 21.3113 46.8966 21.7552H46.912C47.0578 21.9676 47.2429 22.1485 47.4569 22.2875C47.6708 22.4265 47.9094 22.521 48.159 22.5655C48.4086 22.61 48.6643 22.6037 48.9115 22.547C49.1587 22.4902 49.3925 22.384 49.5997 22.2346C49.8069 22.0852 49.9833 21.8954 50.119 21.676C50.2546 21.4567 50.3468 21.2121 50.3902 20.9563C50.4336 20.7004 50.4275 20.4383 50.3721 20.1849C50.3167 19.9315 50.2131 19.6917 50.0674 19.4793L49.8053 19.1053C49.6627 18.9028 49.4803 18.7332 49.2698 18.6075C49.0593 18.4818 48.8254 18.4028 48.5833 18.3755C48.3411 18.3482 48.0961 18.3732 47.864 18.449C47.6319 18.5248 47.4179 18.6497 47.2358 18.8155C46.8289 19.172 46.5681 19.6725 46.5052 20.2173ZM50.485 27.6045C50.4315 27.3508 50.3298 27.1104 50.1856 26.897L49.9492 26.5177C49.8076 26.3146 49.6262 26.144 49.4167 26.0168C49.2072 25.8896 48.9742 25.8085 48.7324 25.7788C48.4906 25.7491 48.2455 25.7713 48.0126 25.8441C47.7797 25.9169 47.5641 26.0386 47.3797 26.2016C46.9709 26.5558 46.7067 27.0543 46.6391 27.5986C46.5715 28.1429 46.7056 28.6934 47.0148 29.1412C47.1925 29.4044 47.4298 29.6196 47.7064 29.7682C47.9829 29.9168 48.2905 29.9946 48.6027 29.9947C48.9937 29.9963 49.3758 29.8749 49.6974 29.647C49.9056 29.4994 50.0835 29.3111 50.2208 29.093C50.3581 28.8748 50.4521 28.6311 50.4974 28.3757C50.5427 28.1203 50.5385 27.8583 50.485 27.6045ZM55.8435 24.2996C55.7888 24.0462 55.6858 23.8063 55.5404 23.5938L55.304 23.2145C55.1632 23.0102 54.9819 22.8386 54.772 22.711C54.5621 22.5833 54.3283 22.5024 54.0858 22.4736C53.8434 22.4448 53.5978 22.4686 53.3649 22.5436C53.1321 22.6187 52.9173 22.7431 52.7345 22.9089C52.3263 23.2639 52.0633 23.7633 51.9976 24.3078C51.9319 24.8524 52.0684 25.4024 52.3799 25.8486C52.5574 26.1104 52.7941 26.3243 53.0697 26.472C53.3453 26.6197 53.6517 26.6968 53.9628 26.6968C54.3562 26.6993 54.7407 26.5759 55.0625 26.3438C55.2705 26.1958 55.448 26.0072 55.5847 25.7887C55.7214 25.5702 55.8146 25.3262 55.859 25.0706C55.9034 24.8151 55.8981 24.5531 55.8435 24.2996Z" fill="white"/>
<path d="M35.7346 57.5264C35.7346 58.0574 35.5289 58.5666 35.1626 58.942C34.7964 59.3174 34.2997 59.5284 33.7818 59.5284H26.9982C26.4871 59.5284 25.997 59.3202 25.6356 58.9497C25.2741 58.5792 25.0711 58.0767 25.0711 57.5528C25.0711 57.0288 25.2741 56.5263 25.6356 56.1558C25.997 55.7853 26.4871 55.5772 26.9982 55.5772H33.7818C34.2917 55.5743 34.7823 55.7771 35.1476 56.1418C35.513 56.5065 35.7238 57.0038 35.7346 57.5264Z" fill="black"/>
<path d="M35.7346 57.5264C35.7346 58.0574 35.5289 58.5666 35.1626 58.942C34.7964 59.3174 34.2997 59.5284 33.7818 59.5284H26.9982C26.4871 59.5284 25.997 59.3202 25.6356 58.9497C25.2741 58.5792 25.0711 58.0767 25.0711 57.5528C25.0711 57.0288 25.2741 56.5263 25.6356 56.1558C25.997 55.7853 26.4871 55.5772 26.9982 55.5772H33.7818C34.2917 55.5743 34.7823 55.7771 35.1476 56.1418C35.513 56.5065 35.7238 57.0038 35.7346 57.5264Z" fill="white"/>
<path d="M40 66.4824H26.9982C26.7444 66.4818 26.4932 66.4292 26.2594 66.3277C26.0256 66.2262 25.8139 66.0779 25.6368 65.8914C25.4597 65.7049 25.3207 65.4841 25.228 65.2418C25.1352 64.9995 25.0906 64.7407 25.0968 64.4805C25.0919 64.2231 25.1378 63.9674 25.2316 63.7286C25.3254 63.4899 25.4653 63.273 25.6428 63.091C25.8204 62.909 26.0319 62.7656 26.2649 62.6694C26.4978 62.5732 26.7472 62.5262 26.9982 62.5312H40C40.2538 62.5249 40.5063 62.5706 40.7426 62.6657C40.979 62.7608 41.1944 62.9033 41.3763 63.0848C41.5582 63.2664 41.7029 63.4834 41.8019 63.723C41.9009 63.9627 41.9522 64.2202 41.9528 64.4805C41.9528 65.0114 41.7471 65.5206 41.3809 65.8961C41.0146 66.2715 40.5179 66.4824 40 66.4824Z" fill="black"/>
<path d="M40 66.4824H26.9982C26.7444 66.4818 26.4932 66.4292 26.2594 66.3277C26.0256 66.2262 25.8139 66.0779 25.6368 65.8914C25.4597 65.7049 25.3207 65.4841 25.228 65.2418C25.1352 64.9995 25.0906 64.7407 25.0968 64.4805C25.0919 64.2231 25.1378 63.9674 25.2316 63.7286C25.3254 63.4899 25.4653 63.273 25.6428 63.091C25.8204 62.909 26.0319 62.7656 26.2649 62.6694C26.4978 62.5732 26.7472 62.5262 26.9982 62.5312H40C40.2538 62.5249 40.5063 62.5706 40.7426 62.6657C40.979 62.7608 41.1944 62.9033 41.3763 63.0848C41.5582 63.2664 41.7029 63.4834 41.8019 63.723C41.9009 63.9627 41.9522 64.2202 41.9528 64.4805C41.9528 65.0114 41.7471 65.5206 41.3809 65.8961C41.0146 66.2715 40.5179 66.4824 40 66.4824Z" fill="white"/>
</svg>
